<svg width="40" height="40" viewBox="0 0 40 40" fill="none" xmlns="http://www.w3.org/2000/svg">
<circle cx="20" cy="20" r="19.5" fill="white" stroke="#E9E9E9"/>
<rect x="5" y="5" width="30" height="30" rx="12" fill="white"/>
<path d="M29.375 20.2292C29.375 19.5833 29.3125 18.9167 29.2083 18.2916H20.1874V21.9792H25.3541C25.1458 23.1667 24.4583 24.2084 23.4374 24.8751L26.5208 27.2709C28.3333 25.5834 29.375 23.125 29.375 20.2292Z" fill="#4280EF"/>
<path d="M20.1874 29.5626C22.7708 29.5626 24.9374 28.7084 26.5208 27.2501L23.4374 24.8751C22.5832 25.4584 21.4791 25.7917 20.1874 25.7917C17.6874 25.7917 15.5832 24.1042 14.8123 21.8542L11.6456 24.2917C13.2706 27.5209 16.5623 29.5626 20.1874 29.5626Z" fill="#34A353"/>
<path d="M14.8123 21.8334C14.4165 20.6458 14.4165 19.3542 14.8123 18.1666L11.6456 15.7083C10.2915 18.4167 10.2915 21.6042 11.6456 24.2917L14.8123 21.8334Z" fill="#F6B704"/>
<path d="M20.1874 14.2291C21.5416 14.2083 22.8749 14.7291 23.8541 15.6666L26.5833 12.9166C24.8541 11.2916 22.5624 10.4166 20.1874 10.4374C16.5624 10.4374 13.2706 12.4791 11.6456 15.7083L14.8123 18.1666C15.5832 15.8958 17.6874 14.2291 20.1874 14.2291Z" fill="#E54335"/>
</svg>
