<svg width="24" height="24" viewBox="0 0 24 24" fill="none" xmlns="http://www.w3.org/2000/svg">
<path d="M20 9.4H4M15.5556 3V6.2M8.44444 3V6.2M8.26667 19H15.7333C17.2268 19 17.9735 19 18.544 18.7384C19.0457 18.5083 19.4537 18.1412 19.7094 17.6896C20 17.1762 20 16.5041 20 15.16V8.44C20 7.09587 20 6.42381 19.7094 5.91042C19.4537 5.45883 19.0457 5.09168 18.544 4.86158C17.9735 4.6 17.2268 4.6 15.7333 4.6H8.26667C6.77319 4.6 6.02646 4.6 5.45603 4.86158C4.95426 5.09168 4.54631 5.45883 4.29065 5.91042C4 6.42381 4 7.09587 4 8.44V15.16C4 16.5041 4 17.1762 4.29065 17.6896C4.54631 18.1412 4.95426 18.5083 5.45603 18.7384C6.02646 19 6.77319 19 8.26667 19Z" stroke="black" stroke-width="1.5" stroke-linecap="round" stroke-linejoin="round"/>
</svg>
