<svg width="40" height="40" viewBox="0 0 40 40" fill="none" xmlns="http://www.w3.org/2000/svg">
<circle cx="20" cy="20" r="20" fill="black"/>
<path d="M25.5872 18.9693C25.5639 16.4426 27.7062 15.2133 27.8042 15.1561C26.5909 13.4291 24.7103 13.1931 24.0495 13.1743C22.47 13.012 20.9379 14.097 20.1334 14.097C19.3127 14.097 18.0737 13.19 16.7384 13.2166C15.02 13.2425 13.4124 14.2138 12.5308 15.7221C10.7112 18.7976 12.0683 23.3171 13.8115 25.8031C14.6835 27.0205 15.7025 28.3799 17.0363 28.3321C18.3411 28.2796 18.8285 27.5199 20.4032 27.5199C21.9633 27.5199 22.421 28.3321 23.7813 28.3015C25.1817 28.2796 26.0633 27.0786 26.9049 25.8501C27.9126 24.4546 28.3173 23.0804 28.3334 23.0098C28.3004 22.9988 25.6137 21.9977 25.5872 18.9693Z" fill="white"/>
<path d="M23.0176 11.5389C23.7194 10.6821 24.1996 9.51632 24.0663 8.33333C23.0506 8.37723 21.7803 9.0193 21.0487 9.85735C20.4015 10.5958 19.8234 11.8063 19.9728 12.9446C21.1138 13.0277 22.2853 12.3825 23.0176 11.5389Z" fill="white"/>
</svg>
