<svg width="160" height="25" viewBox="0 0 160 25" fill="none" xmlns="http://www.w3.org/2000/svg">
<path d="M55.1273 17.7265H51.6778V11.5154C51.6778 9.69101 50.869 8.77879 49.2512 8.77879C48.4741 8.76292 47.8318 9.04055 47.3243 9.61168C46.8326 10.1828 46.5868 10.865 46.5868 11.6582V17.7265H43.2086V5.97074H46.3013L46.4203 7.46995C47.356 6.24837 48.6248 5.65345 50.2266 5.68518C53.4938 5.68518 55.1273 7.62067 55.1273 11.4916V17.7265Z" fill="#00489D"/>
<path d="M61.2939 5.94694H57.8682V17.7265H61.2939V5.94694ZM58.225 4.28115C57.8286 3.93213 57.6303 3.45619 57.6303 2.85333C57.6303 2.25047 57.8286 1.77453 58.225 1.42551C58.6374 1.07649 59.0894 0.901978 59.5811 0.901978C60.0727 0.901978 60.5168 1.07649 60.9133 1.42551C61.3257 1.77453 61.5318 2.25047 61.5318 2.85333C61.5318 3.45619 61.3257 3.93213 60.9133 4.28115C60.5168 4.63018 60.0727 4.80469 59.5811 4.80469C59.0894 4.80469 58.6374 4.63018 58.225 4.28115Z" fill="#00489D"/>
<path d="M69.8494 8.82638C68.9771 8.82638 68.2792 9.11195 67.7559 9.68307C67.2325 10.2383 66.9708 10.9602 66.9708 11.8486C66.9708 12.7212 67.2246 13.443 67.7321 14.0141C68.2555 14.5853 68.9612 14.8708 69.8494 14.8708C70.7217 14.8708 71.4671 14.6249 72.0856 14.1331C72.7042 13.6413 73.0134 12.8798 73.0134 11.8486C73.0134 10.9126 72.6962 10.1749 72.0618 9.63548C71.4274 9.09608 70.69 8.82638 69.8494 8.82638ZM73.061 1.09235H76.5105V17.7265H73.4416L73.2275 16.2273C72.3394 17.3695 71.0389 17.9406 69.326 17.9406C67.5973 17.9406 66.1937 17.3854 65.1152 16.2748C64.0526 15.1485 63.5213 13.673 63.5213 11.8486C63.5213 9.97657 64.0605 8.49322 65.139 7.39856C66.2175 6.28803 67.629 5.73277 69.3736 5.73277C70.9278 5.73277 72.157 6.28803 73.061 7.39856V1.09235Z" fill="#00489D"/>
<path d="M78.905 19.3447H82.0928C82.2038 20.9311 83.1871 21.7244 85.0427 21.7244C85.8516 21.7244 86.5336 21.534 87.0887 21.1532C87.6596 20.7883 87.9451 20.2569 87.9451 19.5588C87.9451 18.2103 86.9935 17.5361 85.0903 17.5361C83.1554 17.5361 81.6091 17.0046 80.4513 15.9417C79.3094 14.8629 78.7384 13.4192 78.7384 11.6106C78.7384 9.70687 79.357 8.23146 80.594 7.18439C81.8311 6.13732 83.3299 5.61379 85.0903 5.61379C86.3115 5.61379 87.2314 5.82796 87.85 6.2563L89.1346 4.59051L91.6087 6.49427L90.11 8.27905C90.9664 9.31025 91.3709 10.4366 91.3233 11.6582C91.2757 13.562 90.4351 14.9343 88.8015 15.7751C90.5461 16.5525 91.4184 17.8137 91.4184 19.5588C91.4184 21.2088 90.792 22.4859 89.539 23.3902C88.2861 24.2944 86.7873 24.7466 85.0427 24.7466C83.0285 24.7466 81.4901 24.2706 80.4275 23.3188C79.3808 22.3827 78.8732 21.058 78.905 19.3447ZM85.0903 8.6598C84.1863 8.6598 83.4488 8.92157 82.8779 9.4451C82.3228 9.96864 82.0452 10.6905 82.0452 11.6106C82.0452 12.4515 82.3307 13.1336 82.9017 13.6572C83.4885 14.1648 84.218 14.4187 85.0903 14.4187C85.915 14.4187 86.6129 14.1728 87.1838 13.681C87.7548 13.1892 88.0403 12.4991 88.0403 11.6106C88.0403 10.7857 87.7548 10.0876 87.1838 9.51649C86.6287 8.94537 85.9309 8.6598 85.0903 8.6598Z" fill="#00489D"/>
<path d="M105.275 12.9671H96.639C96.7342 13.5699 97.0593 14.0697 97.6144 14.4663C98.1695 14.847 98.907 15.0374 99.8269 15.0374C101.143 15.0374 102.158 14.728 102.872 14.1093L104.799 16.251C103.625 17.4092 101.944 17.9882 99.7555 17.9882C97.662 17.9882 96.0363 17.425 94.8786 16.2986C93.7366 15.1722 93.1657 13.6492 93.1657 11.7296C93.1657 9.92104 93.7287 8.46149 94.8548 7.35097C95.9808 6.22457 97.4954 5.66138 99.3986 5.66138C101.476 5.66138 103.062 6.29597 104.157 7.56514C105.267 8.83431 105.64 10.635 105.275 12.9671ZM96.639 10.4684H102.206C102.174 9.86552 101.889 9.40544 101.349 9.08815C100.81 8.75499 100.16 8.58841 99.3986 8.58841C98.7167 8.58841 98.1298 8.75499 97.6382 9.08815C97.1465 9.42131 96.8135 9.88138 96.639 10.4684Z" fill="#00489D"/>
<path d="M0 15.0719C6.21601 12.2131 12.7931 7.91228 16.5115 2.18793L16.5215 2.17264L16.5515 2.18793L21.5312 4.72121V13.6274C24.2893 10.812 28.6512 8.53873 32.7748 6.41339L38.125 9.62514C31.9306 12.4957 25.3926 16.7924 21.5674 22.506L16.5576 19.9114V11.088C13.7995 13.8942 9.53126 16.314 5.40768 18.4485L0 15.0719Z" fill="#F6652F"/>
<path d="M116.872 0.746582H118.54L109.864 20.8396H108.219L116.872 0.746582Z" fill="#F6652F"/>
<path d="M125.342 8.42149C124.054 8.42149 122.99 8.82669 122.148 9.63708C121.321 10.4316 120.908 11.5518 120.908 12.9978C120.908 14.4279 121.329 15.5482 122.171 16.3586C123.014 17.169 124.07 17.5742 125.342 17.5742C126.613 17.5742 127.669 17.1451 128.512 16.2871C129.37 15.429 129.799 14.3247 129.799 12.974C129.799 11.6392 129.37 10.5508 128.512 9.70859C127.669 8.85053 126.613 8.42149 125.342 8.42149ZM129.87 2.20052H131.467V18.8851H129.918L129.87 16.5254C129.409 17.3517 128.758 17.9873 127.916 18.4322C127.089 18.8772 126.2 19.0996 125.246 19.0996C123.514 19.0996 122.092 18.5594 120.98 17.4788C119.867 16.3983 119.311 14.9046 119.311 12.9978C119.311 11.091 119.867 9.59736 120.98 8.51683C122.092 7.43631 123.514 6.89604 125.246 6.89604C126.216 6.89604 127.121 7.11851 127.963 7.56343C128.806 7.99246 129.441 8.62012 129.87 9.4464V2.20052Z" fill="#F6652F"/>
<path d="M146.311 13.6652H136.062C136.173 14.8729 136.642 15.8263 137.468 16.5254C138.31 17.2246 139.327 17.5742 140.519 17.5742C141.266 17.5742 142.013 17.4312 142.759 17.1451C143.522 16.8591 144.102 16.4619 144.499 15.9534L145.572 16.9068C145.016 17.606 144.277 18.1462 143.355 18.5276C142.434 18.9089 141.488 19.0996 140.519 19.0996C138.739 19.0996 137.277 18.5435 136.133 17.4312C134.989 16.3189 134.417 14.8331 134.417 12.974C134.417 11.2102 134.981 9.75626 136.109 8.61217C137.254 7.46809 138.7 6.89604 140.447 6.89604C142.322 6.89604 143.824 7.47603 144.952 8.63601C146.08 9.7801 146.533 11.4565 146.311 13.6652ZM136.062 12.3066H144.809C144.793 11.0672 144.372 10.0979 143.546 9.39873C142.72 8.68368 141.695 8.32615 140.471 8.32615C139.28 8.32615 138.286 8.67573 137.492 9.3749C136.697 10.0741 136.221 11.0513 136.062 12.3066Z" fill="#F6652F"/>
<path d="M157.546 7.11056H159.31L154.352 18.9089H152.588L147.63 7.11056H149.394L153.47 17.1451L157.546 7.11056Z" fill="#F6652F"/>
</svg>
